<?xml version="1.0" encoding="utf-8"?>
<!-- Generator: Adobe Illustrator 24.1.2, SVG Export Plug-In . SVG Version: 6.00 Build 0)  -->
<svg version="1.1" id="Слой_1" xmlns="http://www.w3.org/2000/svg" xmlns:xlink="http://www.w3.org/1999/xlink" x="0px" y="0px"
	 viewBox="0 0 813.5 763" style="enable-background:new 0 0 813.5 763;" xml:space="preserve">
<style type="text/css">
	.st0{fill-rule:evenodd;clip-rule:evenodd;fill:url(#SVGID_1_);}
	.st1{fill-rule:evenodd;clip-rule:evenodd;fill:url(#SVGID_2_);}
</style>
<linearGradient id="SVGID_1_" gradientUnits="userSpaceOnUse" x1="256.5455" y1="908.3495" x2="758.411" y2="159.5316">
	<stop  offset="0" style="stop-color:#5AFFCE"/>
	<stop  offset="1" style="stop-color:#2F3EFF"/>
</linearGradient>
<path class="st0" d="M395,174.7c106.7-50.5,207.5-50.6,291.7-12.7c47.9,21.3,84.6,60.8,126.8,97.1c0,74.8,0,400.7,0.2,503.9
	c0,0-643.7,0-795.1,0c-5-4.9-6.4-12.4-8.7-19C-10,695,2.4,638.8,27.2,582.2c25.1-56.6,62.5-113.6,101.7-166.1
	c39.6-52.6,81.2-100.7,123.9-141.5C295.9,233.7,340.3,200.1,395,174.7L395,174.7L395,174.7z"/>
<linearGradient id="SVGID_2_" gradientUnits="userSpaceOnUse" x1="-152" y1="620" x2="-152" y2="620">
	<stop  offset="0" style="stop-color:#FFFFFF"/>
	<stop  offset="1" style="stop-color:#000000"/>
</linearGradient>
<path class="st1" d="M-152,620"/>
</svg>
