<?xml version="1.0" encoding="utf-8"?>
<!-- Generator: Adobe Illustrator 24.1.2, SVG Export Plug-In . SVG Version: 6.00 Build 0)  -->
<svg version="1.1" id="Слой_1" xmlns="http://www.w3.org/2000/svg" xmlns:xlink="http://www.w3.org/1999/xlink" x="0px" y="0px"
	 viewBox="0 0 320 390" style="enable-background:new 0 0 320 390;" xml:space="preserve">
<style type="text/css">
	.st0{fill-rule:evenodd;clip-rule:evenodd;fill:url(#SVGID_1_);}
</style>
<linearGradient id="SVGID_1_" gradientUnits="userSpaceOnUse" x1="91.6563" y1="408.9333" x2="282.1551" y2="151.813">
	<stop  offset="0" style="stop-color:#5AFFCE"/>
	<stop  offset="1" style="stop-color:#2F3EFF"/>
</linearGradient>
<path class="st0" d="M143.9,109.3C198.5,83.5,250,83.4,293,102.8c9.4,4.2,18.4,9.3,27,15.2c0,66.4,0,193.8,0,272
	c-58.9,0-247.6,0-320,0c0-41.6,0-105.8,0-146.6c2.6-3.6,5.2-7.2,7.9-10.8c20.3-26.9,41.5-51.5,63.3-72.4
	C93.3,139.4,116,122.3,143.9,109.3L143.9,109.3L143.9,109.3z"/>
</svg>
