<?xml version="1.0" encoding="utf-8"?>
<!-- Generator: Adobe Illustrator 24.1.2, SVG Export Plug-In . SVG Version: 6.00 Build 0)  -->
<svg version="1.1" id="Capa_1" xmlns="http://www.w3.org/2000/svg" xmlns:xlink="http://www.w3.org/1999/xlink" x="0px" y="0px"
	 viewBox="0 0 512 512" style="enable-background:new 0 0 512 512;" xml:space="preserve">
<style type="text/css">
	.st0{fill:url(#SVGID_1_);}
	.st1{fill:url(#SVGID_2_);}
	.st2{fill:url(#SVGID_3_);}
	.st3{fill:url(#SVGID_4_);}
	.st4{fill:url(#SVGID_5_);}
	.st5{fill:url(#SVGID_6_);}
	.st6{fill:url(#SVGID_7_);}
	.st7{fill:url(#SVGID_8_);}
	.st8{fill:url(#SVGID_9_);}
	.st9{fill:url(#SVGID_10_);}
	.st10{fill:url(#SVGID_11_);}
	.st11{fill:url(#SVGID_12_);}
	.st12{fill:url(#SVGID_13_);}
</style>
<g>
	<g>
		<linearGradient id="SVGID_1_" gradientUnits="userSpaceOnUse" x1="255.9995" y1="0" x2="255.9995" y2="512">
			<stop  offset="0.5475" style="stop-color:#2F3EFF"/>
			<stop  offset="1" style="stop-color:#5AFFCE"/>
		</linearGradient>
		<path class="st0" d="M458.7,0H53.3C23.9,0,0,23.9,0,53.3v405.3C0,488.1,23.9,512,53.3,512h405.3c29.4,0,53.3-23.9,53.3-53.3V53.3
			C512,23.9,488.1,0,458.7,0z M490.7,458.7c0,17.7-14.3,32-32,32H53.3c-17.7,0-32-14.3-32-32V53.3c0-17.7,14.3-32,32-32h405.3
			c17.7,0,32,14.3,32,32L490.7,458.7L490.7,458.7z"/>
	</g>
</g>
<g>
	<g>
		<linearGradient id="SVGID_2_" gradientUnits="userSpaceOnUse" x1="122.667" y1="85.333" x2="122.667" y2="106.666">
			<stop  offset="0.5475" style="stop-color:#2F3EFF"/>
			<stop  offset="1" style="stop-color:#2F3EFF"/>
		</linearGradient>
		<rect x="42.7" y="85.3" class="st1" width="160" height="21.3"/>
	</g>
</g>
<g>
	<g>
		<linearGradient id="SVGID_3_" gradientUnits="userSpaceOnUse" x1="63.9995" y1="42.667" x2="63.9995" y2="64">
			<stop  offset="0.5475" style="stop-color:#2F3EFF"/>
			<stop  offset="1" style="stop-color:#2F3EFF"/>
		</linearGradient>
		<rect x="53.3" y="42.7" class="st2" width="21.3" height="21.3"/>
	</g>
</g>
<g>
	<g>
		<linearGradient id="SVGID_4_" gradientUnits="userSpaceOnUse" x1="106.6665" y1="42.667" x2="106.6665" y2="64">
			<stop  offset="0.5475" style="stop-color:#2F3EFF"/>
			<stop  offset="1" style="stop-color:#2F3EFF"/>
		</linearGradient>
		<rect x="96" y="42.7" class="st3" width="21.3" height="21.3"/>
	</g>
</g>
<g>
	<g>
		<linearGradient id="SVGID_5_" gradientUnits="userSpaceOnUse" x1="447.9995" y1="42.667" x2="447.9995" y2="64">
			<stop  offset="0.5475" style="stop-color:#2F3EFF"/>
			<stop  offset="1" style="stop-color:#2F3EFF"/>
		</linearGradient>
		<rect x="437.3" y="42.7" class="st4" width="21.3" height="21.3"/>
	</g>
</g>
<g>
	<g>
		<linearGradient id="SVGID_6_" gradientUnits="userSpaceOnUse" x1="256" y1="170.667" x2="256" y2="448">
			<stop  offset="0.5475" style="stop-color:#2F3EFF"/>
			<stop  offset="1" style="stop-color:#5AFFCE"/>
		</linearGradient>
		<path class="st5" d="M448,170.7H64c-11.8,0-21.3,9.6-21.3,21.3v234.7c0,11.8,9.6,21.3,21.3,21.3h384c11.8,0,21.3-9.6,21.3-21.3
			V192C469.3,180.2,459.8,170.7,448,170.7z M448,426.7H64V192h384V426.7z"/>
	</g>
</g>
<g>
	<g>
		<linearGradient id="SVGID_7_" gradientUnits="userSpaceOnUse" x1="255.8345" y1="85.336" x2="255.8345" y2="188.875">
			<stop  offset="0.5475" style="stop-color:#2F3EFF"/>
			<stop  offset="1" style="stop-color:#2F3EFF"/>
		</linearGradient>
		<path class="st6" d="M263.5,88.5c-4.2-4.2-10.9-4.2-15.1,0l-85.3,85.3l15.1,15.1l77.8-77.8l77.5,77.5l15.1-15.1L263.5,88.5z"/>
	</g>
</g>
<g>
	<g>
		<linearGradient id="SVGID_8_" gradientUnits="userSpaceOnUse" x1="383.9995" y1="85.333" x2="383.9995" y2="106.666">
			<stop  offset="0.5475" style="stop-color:#2F3EFF"/>
			<stop  offset="1" style="stop-color:#2F3EFF"/>
		</linearGradient>
		<rect x="309.3" y="85.3" class="st7" width="149.3" height="21.3"/>
	</g>
</g>
<g>
	<g>
		<linearGradient id="SVGID_9_" gradientUnits="userSpaceOnUse" x1="181.3335" y1="234.6534" x2="181.3335" y2="384.0136">
			<stop  offset="0.5475" style="stop-color:#2F3EFF"/>
			<stop  offset="1" style="stop-color:#2F3EFF"/>
		</linearGradient>
		<path class="st8" d="M224,352v-21.3h-21.3V352c0.1,0.6,0.1,1.3,0,1.9c-0.5,5.4-5.3,9.3-10.7,8.8h-21.3c-0.6,0.1-1.3,0.1-1.9,0
			c-5.4-0.5-9.3-5.3-8.8-10.7v-85.3c-0.1-0.6-0.1-1.3,0-1.9c0.5-5.4,5.3-9.3,10.7-8.8H192c0.6-0.1,1.3-0.1,1.9,0
			c5.4,0.5,9.3,5.3,8.8,10.7V288H224v-21.3c0-0.6,0-1.2,0-1.8c-0.5-17.2-14.8-30.7-32-30.2h-21.3c-0.6,0-1.2,0-1.8,0
			c-17.2,0.5-30.7,14.8-30.2,32V352c0,0.6,0,1.2,0,1.8c0.5,17.2,14.8,30.7,32,30.2H192c0.6,0,1.2,0,1.8,0
			C211,383.5,224.5,369.2,224,352z"/>
	</g>
</g>
<g>
	<g>
		<linearGradient id="SVGID_10_" gradientUnits="userSpaceOnUse" x1="277.3335" y1="234.667" x2="277.3335" y2="384">
			<stop  offset="0.5475" style="stop-color:#2F3EFF"/>
			<stop  offset="1" style="stop-color:#2F3EFF"/>
		</linearGradient>
		<rect x="266.7" y="234.7" class="st9" width="21.3" height="149.3"/>
	</g>
</g>
<g>
	<g>
		<linearGradient id="SVGID_11_" gradientUnits="userSpaceOnUse" x1="330.6665" y1="234.667" x2="330.6665" y2="384">
			<stop  offset="0.5475" style="stop-color:#2F3EFF"/>
			<stop  offset="1" style="stop-color:#2F3EFF"/>
		</linearGradient>
		<rect x="320" y="234.7" class="st10" width="21.3" height="149.3"/>
	</g>
</g>
<g>
	<g>
		<linearGradient id="SVGID_12_" gradientUnits="userSpaceOnUse" x1="303.9995" y1="266.667" x2="303.9995" y2="288">
			<stop  offset="0.5475" style="stop-color:#2F3EFF"/>
			<stop  offset="1" style="stop-color:#2F3EFF"/>
		</linearGradient>
		<rect x="245.3" y="266.7" class="st11" width="117.3" height="21.3"/>
	</g>
</g>
<g>
	<g>
		<linearGradient id="SVGID_13_" gradientUnits="userSpaceOnUse" x1="303.9995" y1="330.667" x2="303.9995" y2="352">
			<stop  offset="0.5475" style="stop-color:#2F3EFF"/>
			<stop  offset="1" style="stop-color:#2F3EFF"/>
		</linearGradient>
		<rect x="245.3" y="330.7" class="st12" width="117.3" height="21.3"/>
	</g>
</g>
</svg>
